<svg height="320" viewBox="0 0 900 320" width="900" xmlns="http://www.w3.org/2000/svg"><g fill="none" fill-rule="nonzero"><path d="m0 0h900v320h-900z" fill="#00a1d5"/><path d="m424 112.372598-8.502702-8.379617c-14.270271 10.723566-23.664865 27.248409-24.497298 46h11.89189c.891893-15.528663 8.978381-29.123569 21.10811-37.620383zm73.08664 37.620383h11.91336c-.893496-18.751591-10.30505-35.276434-24.541516-46l-8.458484 8.379617c12.032498 8.496814 20.193144 22.09172 21.08664 37.620383zm-11.96164 2.969697c0-18.047877-9.737497-33.156363-26.71875-37.15394v-3.997575c0-4.879393-3.978126-8.818182-8.90625-8.818182-4.928125 0-8.90625 3.938789-8.90625 8.818182v3.997575c-17.040625 3.997577-26.71875 19.047274-26.71875 37.15394v29.393939l-11.875 11.757576v5.878788h95v-5.878788l-11.875-11.757576zm-35.064999 65.030303c.840002 0 1.620003-.06 2.399998-.240006 3.899998-.839993 7.080002-3.479996 8.640003-7.079992.600002-1.439999.899998-2.999997.899998-4.680002h-24c.060001 6.599994 5.399998 12 12.060001 12z" fill="#fff"/></g></svg>