<svg height="100" viewBox="0 0 100 100" width="100" xmlns="http://www.w3.org/2000/svg"><g fill="none" fill-rule="evenodd"><circle cx="50" cy="50" fill="#00a1d5" r="50"/><path d="m40.5250744 33.5656967-3.227181-3.2271809c-5.4162487 4.1298892-8.9819453 10.4939816-9.2978934 17.7156458h4.5135397c.3385158-5.9804413 3.4077237-11.2161486 8.0115347-14.4884649zm27.9613852 14.4884649h4.5135404c-.3385133-7.2216642-3.9042102-13.5857566-9.297891-17.7156458l-3.2046132 3.2271809c4.5586776 3.2723163 7.6504505 8.5080236 7.9889638 14.4884649zm-4.4458395 1.1283851c0-6.9282838-3.7011018-12.7281837-10.1554659-14.2627881v-1.5346033c0-1.873119-1.5120363-3.3851553-3.3851553-3.3851553-1.8731191 0-3.3851553 1.5120363-3.3851553 3.3851553v1.5346033c-6.4769303 1.5346044-10.1554659 7.3119361-10.1554659 14.2627881v11.283851l-4.5135404 4.5135404v2.2567702h36.1083232v-2.2567702l-4.5135404-4.5135404zm-13.5406212 24.8244722c.3159485 0 .6093291-.0225677.9027071-.0902731 1.4668998-.3159456 2.6629896-1.3089267 3.2497505-2.6629888.2256777-.5416249.3385146-1.1283851.3385146-1.7602831h-9.0270808c.0225682 2.4824473 2.0310923 4.513545 4.5361086 4.513545z" fill="#fff"/></g></svg>